<svg width="4528" height="2440" xmlns="http://www.w3.org/2000/svg" xmlns:xlink="http://www.w3.org/1999/xlink" xml:space="preserve" overflow="hidden"><g transform="translate(-588 -511)"><path d="M1446 766C1446 628.481 1593.52 517 1775.5 517 1957.48 517 2105 628.481 2105 766 2105 903.519 1957.48 1015 1775.5 1015 1593.52 1015 1446 903.519 1446 766Z" fill="#307F9C" fill-rule="evenodd"/><text fill="#FFFFFF" font-family="Calibri,Calibri_MSFontService,sans-serif" font-weight="400" font-size="77" transform="matrix(1 0 0 1 1641.08 607)">Climate/</text><text fill="#FFFFFF" font-family="Calibri,Calibri_MSFontService,sans-serif" font-weight="400" font-size="77" transform="matrix(1 0 0 1 1621.88 699)">Emissions </text><text fill="#FFFFFF" font-family="Calibri,Calibri_MSFontService,sans-serif" font-weight="400" font-size="77" transform="matrix(1 0 0 1 1640.78 792)">Scenario</text><text fill="#FFFFFF" font-family="Calibri,Calibri_MSFontService,sans-serif" font-weight="400" font-size="77" transform="matrix(1 0 0 1 1643.95 884)">(RCP4.5, </text><text fill="#FFFFFF" font-family="Calibri,Calibri_MSFontService,sans-serif" font-weight="400" font-size="77" transform="matrix(1 0 0 1 1714.99 977)">8.5)</text><path d="M1811 1238C1811 1132.51 1957.18 1047 2137.5 1047 2317.82 1047 2464 1132.51 2464 1238 2464 1343.49 2317.82 1429 2137.5 1429 1957.18 1429 1811 1343.49 1811 1238Z" fill="#307F9C" fill-rule="evenodd"/><text fill="#FFFFFF" font-family="Calibri,Calibri_MSFontService,sans-serif" font-weight="400" font-size="77" transform="matrix(1 0 0 1 2042.17 1125)">Socio</text><text fill="#FFFFFF" font-family="Calibri,Calibri_MSFontService,sans-serif" font-weight="400" font-size="77" transform="matrix(1 0 0 1 2209.47 1125)">-</text><text fill="#FFFFFF" font-family="Calibri,Calibri_MSFontService,sans-serif" font-weight="400" font-size="77" transform="matrix(1 0 0 1 1985.16 1217)">economic  </text><text fill="#FFFFFF" font-family="Calibri,Calibri_MSFontService,sans-serif" font-weight="400" font-size="77" transform="matrix(1 0 0 1 2002.92 1310)">Scenario</text><text fill="#FFFFFF" font-family="Calibri,Calibri_MSFontService,sans-serif" font-weight="400" font-size="77" transform="matrix(1 0 0 1 2001.5 1402)">(SSP3, 5)</text><path d="M1446.5 771.083 1364 771.083 1368.58 766.5 1368.58 2896.02 1364 2891.44 3060.04 2891.05 3060.04 2900.22 1359.42 2900.61 1359.42 761.917 1446.5 761.917ZM3053.53 2873.19 3101.15 2892.13 3057.42 2918.86Z" fill="#00266A"/><path d="M1811.5 1243.08 1729 1243.08 1733.58 1238.5 1733.58 2736.28 1729 2731.69 3060.16 2731.69 3060.16 2740.86 1724.41 2740.86 1724.41 1233.92 1811.5 1233.92ZM3055.57 2713.36 3101.41 2736.28 3055.57 2759.19Z" fill="#00266A"/><path d="M0-4.58333 1206.06-4.58333 1205.69 926.375 1196.52 926.371 1196.89-0.00184894 1201.48 4.58333 0 4.58333ZM1224.32 923.673 1197.74 967.485 1178.64 919.936Z" fill="#00266A" transform="matrix(1.83697e-16 1 1 -1.83697e-16 2138.5 1429.5)"/><path d="M2878.5 762.917 2916.83 762.917 2916.83 1210.57 2907.67 1210.57 2907.67 767.5 2912.25 772.083 2878.5 772.083ZM2935.17 1205.98 2912.25 1251.82 2889.33 1205.98Z" fill="#00266A"/><path d="M2105.53 761.917 2207.06 762.588 2207 771.754 2105.47 771.083ZM2202.6 744.225 2248.28 767.444 2202.3 790.057Z" fill="#00266A"/><text fill="#A63F1E" font-family="Arial,Arial_MSFontService,sans-serif" font-weight="700" font-size="77" transform="matrix(1 0 0 1 2967.35 659)">Hourly meteorology </text><text fill="#A63F1E" font-family="Arial,Arial_MSFontService,sans-serif" font-weight="700" font-size="77" transform="matrix(1 0 0 1 3071.05 751)">at 1/8</text><text fill="#A63F1E" font-family="Arial,Arial_MSFontService,sans-serif" font-weight="700" font-size="51" transform="matrix(1 0 0 1 3268.13 728)">th</text><text fill="#A63F1E" font-family="Arial,Arial_MSFontService,sans-serif" font-weight="700" font-size="77" transform="matrix(1 0 0 1 3338.03 751)">degree</text><path d="M2878.5 762.917 3371.91 762.917 3371.91 1210.57 3362.75 1210.57 3362.75 767.5 3367.33 772.083 2878.5 772.083ZM3390.25 1205.98 3367.33 1251.82 3344.41 1205.98Z" fill="#00266A"/><path d="M2878.5 762.917 3826.99 762.917 3826.99 1210.57 3817.82 1210.57 3817.82 767.5 3822.41 772.083 2878.5 772.083ZM3845.32 1205.98 3822.41 1251.82 3799.49 1205.98Z" fill="#00266A"/><path d="M3406.08 1596.5 3406.08 2522.43 3396.92 2522.43 3396.92 1596.5ZM3424.42 2517.84 3401.5 2563.68 3378.58 2517.84Z" fill="#00266A"/><path d="M588 1317C588 1257.91 722.539 1210 888.5 1210 1054.46 1210 1189 1257.91 1189 1317 1189 1376.09 1054.46 1424 888.5 1424 722.539 1424 588 1376.09 588 1317Z" fill="#307F9C" fill-rule="evenodd"/><text fill="#FFFFFF" font-family="Calibri,Calibri_MSFontService,sans-serif" font-weight="400" font-size="66" transform="matrix(1 0 0 1 743.734 1300)">Exogenous </text><text fill="#FFFFFF" font-family="Calibri,Calibri_MSFontService,sans-serif" font-weight="400" font-size="66" transform="matrix(1 0 0 1 773.526 1379)">Scenario</text><path d="M608.5 1546.5C608.5 1512.26 636.259 1484.5 670.501 1484.5L1108.5 1484.5C1142.74 1484.5 1170.5 1512.26 1170.5 1546.5L1170.5 1794.5C1170.5 1828.74 1142.74 1856.5 1108.5 1856.5L670.501 1856.5C636.259 1856.5 608.5 1828.74 608.5 1794.5Z" stroke="#616265" stroke-width="9.16667" stroke-miterlimit="8" fill="#7F7F7F" fill-rule="evenodd"/><text fill="#FFFFFF" font-family="Calibri,Calibri_MSFontService,sans-serif" font-weight="400" font-size="77" transform="matrix(1 0 0 1 786.989 1696)">Model</text><text font-family="Arial,Arial_MSFontService,sans-serif" font-weight="700" font-size="77" transform="matrix(1 0 0 1 727.926 1124)">Legend</text><text fill="#7F7F7F" font-family="Arial,Arial_MSFontService,sans-serif" font-weight="400" font-size="77" transform="matrix(1 0 0 1 725.687 1966)">Coupling </text><path d="M692 2032.84 1039.86 2032.84 1039.86 2043.16 692 2043.16ZM1034.71 2012.22 1086.27 2038 1034.71 2063.78Z" fill="#00266A"/><text fill="#A63F1E" font-family="Arial,Arial_MSFontService,sans-serif" font-weight="700" font-size="77" transform="matrix(1 0 0 1 737.646 2183)">Variable</text><path d="M3101.5 2621C3101.5 2589.24 3127.24 2563.5 3159 2563.5L3697 2563.5C3728.76 2563.5 3754.5 2589.24 3754.5 2621L3754.5 2851C3754.5 2882.76 3728.76 2908.5 3697 2908.5L3159 2908.5C3127.24 2908.5 3101.5 2882.76 3101.5 2851Z" stroke="#616265" stroke-width="9.16667" stroke-miterlimit="8" fill="#7F7F7F" fill-rule="evenodd"/><text fill="#FFFFFF" font-family="Calibri,Calibri_MSFontService,sans-serif" font-weight="400" font-size="77" transform="matrix(1 0 0 1 3193.71 2669)">Energy, Water, </text><text fill="#FFFFFF" font-family="Calibri,Calibri_MSFontService,sans-serif" font-weight="400" font-size="77" transform="matrix(1 0 0 1 3214.04 2761)">Land Markets</text><text fill="#FFFFFF" font-family="Calibri,Calibri_MSFontService,sans-serif" font-weight="400" font-size="77" transform="matrix(1 0 0 1 3227.21 2854)">(GCAM</text><text fill="#FFFFFF" font-family="Calibri,Calibri_MSFontService,sans-serif" font-weight="400" font-size="77" transform="matrix(1 0 0 1 3451.22 2854)">-</text><text fill="#FFFFFF" font-family="Calibri,Calibri_MSFontService,sans-serif" font-weight="400" font-size="77" transform="matrix(1 0 0 1 3474.71 2854)">USA)</text><path d="M2248.5 634.668C2248.5 598.124 2278.12 568.5 2314.67 568.5L2812.33 568.5C2848.88 568.5 2878.5 598.124 2878.5 634.668L2878.5 899.332C2878.5 935.876 2848.88 965.5 2812.33 965.5L2314.67 965.5C2278.12 965.5 2248.5 935.876 2248.5 899.332Z" stroke="#616265" stroke-width="9.16667" stroke-miterlimit="8" fill="#7F7F7F" fill-rule="evenodd"/><text fill="#FFFFFF" font-family="Calibri,Calibri_MSFontService,sans-serif" font-weight="400" font-size="66" transform="matrix(1 0 0 1 2344.22 710)">Thermodynamic </text><text fill="#FFFFFF" font-family="Calibri,Calibri_MSFontService,sans-serif" font-weight="400" font-size="66" transform="matrix(1 0 0 1 2345.64 789)">Global Warming </text><text fill="#FFFFFF" font-family="Calibri,Calibri_MSFontService,sans-serif" font-weight="400" font-size="66" transform="matrix(1 0 0 1 2316.72 868)">Simulations (WRF)</text><path d="M3827.23 1596.5 3827.23 2079.98 3634.5 2079.98 3639.08 2075.4 3639.08 2513.04 3629.92 2513.04 3629.92 2070.81 3822.65 2070.81 3818.06 2075.4 3818.06 1596.5ZM3657.42 2508.46 3634.5 2554.29 3611.58 2508.46Z" fill="#00266A"/><path d="M0-4.58333 488.172-4.58333 488.172 254.064 483.588 249.481 925.926 249.481 925.926 258.647 479.005 258.647 479.005 0 483.588 4.58333 0 4.58333ZM921.343 231.147 967.176 254.064 921.343 276.981Z" fill="#00266A" transform="matrix(1.83697e-16 1 1 -1.83697e-16 2912.5 1596.5)"/><text fill="#A63F1E" font-family="Arial,Arial_MSFontService,sans-serif" font-weight="700" font-size="77" transform="matrix(1 0 0 1 2878.47 2164)">Runoff </text><text fill="#A63F1E" font-family="Arial,Arial_MSFontService,sans-serif" font-weight="700" font-size="77" transform="matrix(1 0 0 1 2814.3 2256)">by basin</text><rect x="3178" y="1915" width="443" height="335" fill="#FFFFFF"/><text fill="#A63F1E" font-family="Arial,Arial_MSFontService,sans-serif" font-weight="700" font-size="77" transform="matrix(1 0 0 1 3221.85 2006)">HDH/CDH </text><text fill="#A63F1E" font-family="Arial,Arial_MSFontService,sans-serif" font-weight="700" font-size="77" transform="matrix(1 0 0 1 3253.36 2098)">by state</text><text fill="#A63F1E" font-family="Arial,Arial_MSFontService,sans-serif" font-weight="700" font-size="77" transform="matrix(1 0 0 1 3662.28 2164)">Ag yields</text><text fill="#A63F1E" font-family="Arial,Arial_MSFontService,sans-serif" font-weight="700" font-size="77" transform="matrix(1 0 0 1 3662.28 2256)">by basin</text><path d="M2696.5 1309C2696.5 1277.24 2722.24 1251.5 2754 1251.5L3071 1251.5C3102.76 1251.5 3128.5 1277.24 3128.5 1309L3128.5 1539C3128.5 1570.76 3102.76 1596.5 3071 1596.5L2754 1596.5C2722.24 1596.5 2696.5 1570.76 2696.5 1539Z" stroke="#616265" stroke-width="9.16667" stroke-miterlimit="8" fill="#7F7F7F" fill-rule="evenodd"/><text fill="#FFFFFF" font-family="Calibri,Calibri_MSFontService,sans-serif" font-weight="400" font-size="64" transform="matrix(1 0 0 1 2782.52 1415)">HDH/CDH</text><text fill="#FFFFFF" font-family="Calibri,Calibri_MSFontService,sans-serif" font-weight="400" font-size="50" transform="matrix(1 0 0 1 2833.51 1479)">(Helios)</text><path d="M3151.5 1309C3151.5 1277.24 3177.24 1251.5 3209 1251.5L3526 1251.5C3557.76 1251.5 3583.5 1277.24 3583.5 1309L3583.5 1539C3583.5 1570.76 3557.76 1596.5 3526 1596.5L3209 1596.5C3177.24 1596.5 3151.5 1570.76 3151.5 1539Z" stroke="#616265" stroke-width="9.16667" stroke-miterlimit="8" fill="#7F7F7F" fill-rule="evenodd"/><text fill="#FFFFFF" font-family="Calibri,Calibri_MSFontService,sans-serif" font-weight="400" font-size="55" transform="matrix(1 0 0 1 3215.83 1414)">Water Runoff</text><text fill="#FFFFFF" font-family="Calibri,Calibri_MSFontService,sans-serif" font-weight="400" font-size="46" transform="matrix(1 0 0 1 3277.43 1472)">(Xanthos)</text><path d="M3606.5 1309C3606.5 1277.24 3632.24 1251.5 3664 1251.5L3981 1251.5C4012.76 1251.5 4038.5 1277.24 4038.5 1309L4038.5 1539C4038.5 1570.76 4012.76 1596.5 3981 1596.5L3664 1596.5C3632.24 1596.5 3606.5 1570.76 3606.5 1539Z" stroke="#616265" stroke-width="9.16667" stroke-miterlimit="8" fill="#7F7F7F" fill-rule="evenodd"/><text fill="#FFFFFF" font-family="Calibri,Calibri_MSFontService,sans-serif" font-weight="400" font-size="77" transform="matrix(1 0 0 1 3696.98 1416)">Ag Yield</text><text fill="#FFFFFF" font-family="Calibri,Calibri_MSFontService,sans-serif" font-weight="400" font-size="55" transform="matrix(1 0 0 1 3743.08 1488)">(Osiris)</text><text fill="#A63F1E" font-family="Arial,Arial_MSFontService,sans-serif" font-weight="700" font-size="77" transform="matrix(1 0 0 1 1764.23 2692)">GDP</text><text fill="#A63F1E" font-family="Arial,Arial_MSFontService,sans-serif" font-weight="700" font-size="77" transform="matrix(1 0 0 1 2164.96 2514)">State </text><text fill="#A63F1E" font-family="Arial,Arial_MSFontService,sans-serif" font-weight="700" font-size="77" transform="matrix(1 0 0 1 2164.96 2606)">populations</text><path d="M0.0460638-4.5831 516.755 0.610234 516.663 9.77644-0.0460638 4.5831ZM512.356-17.7682 557.956 5.60791 511.895 28.0628Z" fill="#00266A" transform="matrix(1 0 0 -1 2138.5 1429.11)"/><text fill="#A63F1E" font-family="Arial,Arial_MSFontService,sans-serif" font-weight="700" font-size="77" transform="matrix(1 0 0 1 2348.23 1503)">1/8</text><text fill="#A63F1E" font-family="Arial,Arial_MSFontService,sans-serif" font-weight="700" font-size="51" transform="matrix(1 0 0 1 2455.36 1480)">th</text><text fill="#A63F1E" font-family="Arial,Arial_MSFontService,sans-serif" font-weight="700" font-size="77" transform="matrix(1 0 0 1 2525.26 1503)">deg </text><text fill="#A63F1E" font-family="Arial,Arial_MSFontService,sans-serif" font-weight="700" font-size="77" transform="matrix(1 0 0 1 2269.16 1595)">population</text><text fill="#A63F1E" font-family="Arial,Arial_MSFontService,sans-serif" font-weight="700" font-size="77" transform="matrix(1 0 0 1 1380.46 2702)">GHG </text><text fill="#A63F1E" font-family="Arial,Arial_MSFontService,sans-serif" font-weight="700" font-size="77" transform="matrix(1 0 0 1 1380.46 2794)">emissions </text><text fill="#A63F1E" font-family="Arial,Arial_MSFontService,sans-serif" font-weight="700" font-size="77" transform="matrix(1 0 0 1 1380.46 2887)">constraints</text><text font-family="Arial Narrow,Arial Narrow_MSFontService,sans-serif" font-weight="700" font-stretch="condensed" font-size="73" transform="matrix(1 0 0 1 4406.9 663)">GCAM</text><text font-family="Arial Narrow,Arial Narrow_MSFontService,sans-serif" font-weight="700" font-stretch="condensed" font-size="73" transform="matrix(1 0 0 1 4590.81 663)">-</text><text font-family="Arial Narrow,Arial Narrow_MSFontService,sans-serif" font-weight="700" font-stretch="condensed" font-size="73" transform="matrix(1 0 0 1 4610.86 663)">USA </text><text font-family="Arial Narrow,Arial Narrow_MSFontService,sans-serif" font-weight="700" font-stretch="condensed" font-size="73" transform="matrix(1 0 0 1 4752.49 663)">OUTPUTS</text><rect x="4331" y="671" width="784" height="599" stroke="#7894A3" stroke-width="2.29167" stroke-linejoin="round" stroke-miterlimit="10" fill="#FFFFFF"/><text font-family="Arial Narrow,Arial Narrow_MSFontService,sans-serif" font-weight="700" font-stretch="condensed" font-size="55" transform="matrix(1 0 0 1 4348.98 742)">Quantity</text><text font-family="Arial,Arial_MSFontService,sans-serif" font-weight="400" font-size="55" transform="matrix(1 0 0 1 4348.75 812)">•</text><text font-family="Arial Narrow,Arial Narrow_MSFontService,sans-serif" font-weight="400" font-stretch="condensed" font-size="55" transform="matrix(1 0 0 1 4368.23 812)">Energy production</text><text font-family="Arial,Arial_MSFontService,sans-serif" font-weight="400" font-size="55" transform="matrix(1 0 0 1 4348.75 883)">•</text><text font-family="Arial Narrow,Arial Narrow_MSFontService,sans-serif" font-weight="400" font-stretch="condensed" font-size="55" transform="matrix(1 0 0 1 4368.23 883)">Energy consumption</text><text font-family="Arial,Arial_MSFontService,sans-serif" font-weight="400" font-size="55" transform="matrix(1 0 0 1 4348.75 953)">•</text><text font-family="Arial Narrow,Arial Narrow_MSFontService,sans-serif" font-weight="400" font-stretch="condensed" font-size="55" transform="matrix(1 0 0 1 4368.23 953)">Agriculture production</text><text font-family="Arial,Arial_MSFontService,sans-serif" font-weight="400" font-size="55" transform="matrix(1 0 0 1 4348.75 1024)">•</text><text font-family="Arial Narrow,Arial Narrow_MSFontService,sans-serif" font-weight="400" font-stretch="condensed" font-size="55" transform="matrix(1 0 0 1 4368.23 1024)">Agriculture consumption</text><text font-family="Arial,Arial_MSFontService,sans-serif" font-weight="400" font-size="55" transform="matrix(1 0 0 1 4348.75 1095)">•</text><text font-family="Arial Narrow,Arial Narrow_MSFontService,sans-serif" font-weight="400" font-stretch="condensed" font-size="55" transform="matrix(1 0 0 1 4368.23 1095)">Water withdrawals</text><text font-family="Arial,Arial_MSFontService,sans-serif" font-weight="400" font-size="55" transform="matrix(1 0 0 1 4348.75 1165)">•</text><text font-family="Arial Narrow,Arial Narrow_MSFontService,sans-serif" font-weight="400" font-stretch="condensed" font-size="55" transform="matrix(1 0 0 1 4368.23 1165)">Water consumption</text><text font-family="Arial,Arial_MSFontService,sans-serif" font-weight="400" font-size="55" transform="matrix(1 0 0 1 4348.75 1236)">•</text><text font-family="Arial Narrow,Arial Narrow_MSFontService,sans-serif" font-weight="400" font-stretch="condensed" font-size="55" transform="matrix(1 0 0 1 4368.23 1236)">Water supply</text><rect x="4330" y="1337" width="785" height="328" stroke="#7894A3" stroke-width="2.29167" stroke-linejoin="round" stroke-miterlimit="10" fill="#FFFFFF"/><text font-family="Arial Narrow,Arial Narrow_MSFontService,sans-serif" font-weight="700" font-stretch="condensed" font-size="55" transform="matrix(1 0 0 1 4348.73 1408)">Prices</text><text font-family="Arial,Arial_MSFontService,sans-serif" font-weight="400" font-size="55" transform="matrix(1 0 0 1 4348.5 1483)">•</text><text font-family="Arial Narrow,Arial Narrow_MSFontService,sans-serif" font-weight="400" font-stretch="condensed" font-size="55" transform="matrix(1 0 0 1 4367.98 1483)">Energy</text><text font-family="Arial,Arial_MSFontService,sans-serif" font-weight="400" font-size="55" transform="matrix(1 0 0 1 4348.5 1558)">•</text><text font-family="Arial Narrow,Arial Narrow_MSFontService,sans-serif" font-weight="400" font-stretch="condensed" font-size="55" transform="matrix(1 0 0 1 4367.98 1558)">Agriculture &amp; Forestry</text><text font-family="Arial,Arial_MSFontService,sans-serif" font-weight="400" font-size="55" transform="matrix(1 0 0 1 4348.5 1633)">•</text><text font-family="Arial Narrow,Arial Narrow_MSFontService,sans-serif" font-weight="400" font-stretch="condensed" font-size="55" transform="matrix(1 0 0 1 4367.98 1633)">Water</text><rect x="4330" y="1733" width="785" height="327" stroke="#7894A3" stroke-width="2.29167" stroke-linejoin="round" stroke-miterlimit="10" fill="#FFFFFF"/><text font-family="Arial Narrow,Arial Narrow_MSFontService,sans-serif" font-weight="700" font-stretch="condensed" font-size="55" transform="matrix(1 0 0 1 4348.73 1803)">Trade</text><text font-family="Arial,Arial_MSFontService,sans-serif" font-weight="400" font-size="55" transform="matrix(1 0 0 1 4348.5 1878)">•</text><text font-family="Arial Narrow,Arial Narrow_MSFontService,sans-serif" font-weight="400" font-stretch="condensed" font-size="55" transform="matrix(1 0 0 1 4367.98 1878)">Energy</text><text font-family="Arial,Arial_MSFontService,sans-serif" font-weight="400" font-size="55" transform="matrix(1 0 0 1 4348.5 1953)">•</text><text font-family="Arial Narrow,Arial Narrow_MSFontService,sans-serif" font-weight="400" font-stretch="condensed" font-size="55" transform="matrix(1 0 0 1 4367.98 1953)">Agriculture &amp; Forestry</text><text font-family="Arial,Arial_MSFontService,sans-serif" font-weight="400" font-size="55" transform="matrix(1 0 0 1 4348.5 2028)">•</text><text font-family="Arial Narrow,Arial Narrow_MSFontService,sans-serif" font-weight="400" font-stretch="condensed" font-size="55" transform="matrix(1 0 0 1 4367.98 2028)">Water</text><rect x="4330" y="2148" width="785" height="327" stroke="#7894A3" stroke-width="2.29167" stroke-linejoin="round" stroke-miterlimit="10" fill="#FFFFFF"/><text font-family="Arial Narrow,Arial Narrow_MSFontService,sans-serif" font-weight="700" font-stretch="condensed" font-size="55" transform="matrix(1 0 0 1 4348.73 2218)">Land</text><text font-family="Arial,Arial_MSFontService,sans-serif" font-weight="400" font-size="55" transform="matrix(1 0 0 1 4348.5 2293)">•</text><text font-family="Arial Narrow,Arial Narrow_MSFontService,sans-serif" font-weight="400" font-stretch="condensed" font-size="55" transform="matrix(1 0 0 1 4367.98 2293)">Land use</text><text font-family="Arial,Arial_MSFontService,sans-serif" font-weight="400" font-size="55" transform="matrix(1 0 0 1 4348.5 2368)">•</text><text font-family="Arial Narrow,Arial Narrow_MSFontService,sans-serif" font-weight="400" font-stretch="condensed" font-size="55" transform="matrix(1 0 0 1 4367.98 2368)">Land cover</text><text font-family="Arial,Arial_MSFontService,sans-serif" font-weight="400" font-size="55" transform="matrix(1 0 0 1 4348.5 2443)">•</text><text font-family="Arial Narrow,Arial Narrow_MSFontService,sans-serif" font-weight="400" font-stretch="condensed" font-size="55" transform="matrix(1 0 0 1 4367.98 2443)">Carbon fluxes</text><rect x="4330" y="2545" width="785" height="251" stroke="#7894A3" stroke-width="2.29167" stroke-linejoin="round" stroke-miterlimit="10" fill="#FFFFFF"/><text font-family="Arial Narrow,Arial Narrow_MSFontService,sans-serif" font-weight="700" font-stretch="condensed" font-size="55" transform="matrix(1 0 0 1 4348.73 2615)">Emissions</text><text font-family="Arial,Arial_MSFontService,sans-serif" font-weight="400" font-size="55" transform="matrix(1 0 0 1 4348.5 2690)">•</text><text font-family="Arial Narrow,Arial Narrow_MSFontService,sans-serif" font-weight="400" font-stretch="condensed" font-size="55" transform="matrix(1 0 0 1 4367.98 2690)">Greenhouse gases (GHG)</text><text font-family="Arial,Arial_MSFontService,sans-serif" font-weight="400" font-size="55" transform="matrix(1 0 0 1 4348.5 2765)">•</text><text font-family="Arial Narrow,Arial Narrow_MSFontService,sans-serif" font-weight="400" font-stretch="condensed" font-size="55" transform="matrix(1 0 0 1 4367.98 2765)">Non</text><text font-family="Arial Narrow,Arial Narrow_MSFontService,sans-serif" font-weight="400" font-stretch="condensed" font-size="55" transform="matrix(1 0 0 1 4451.06 2765)">-</text><text font-family="Arial Narrow,Arial Narrow_MSFontService,sans-serif" font-weight="400" font-stretch="condensed" font-size="55" transform="matrix(1 0 0 1 4465.95 2765)">GHG emissions</text></g></svg>