<svg width="4247" height="2456" xmlns="http://www.w3.org/2000/svg" xmlns:xlink="http://www.w3.org/1999/xlink" xml:space="preserve" overflow="hidden"><defs><clipPath id="clip0"><rect x="593" y="480" width="4247" height="2456"/></clipPath><linearGradient x1="2770" y1="480" x2="2770" y2="539" gradientUnits="userSpaceOnUse" spreadMethod="reflect" id="fill1"><stop offset="0" stop-color="#F2F2F2"/><stop offset="0.52999" stop-color="#D8D8D8"/><stop offset="0.8" stop-color="#D8D8D8"/><stop offset="1" stop-color="#D8D8D8"/></linearGradient><linearGradient x1="2769" y1="762" x2="2769" y2="979" gradientUnits="userSpaceOnUse" spreadMethod="reflect" id="fill2"><stop offset="0" stop-color="#F2F2F2"/><stop offset="0.52999" stop-color="#D8D8D8"/><stop offset="0.8" stop-color="#D8D8D8"/><stop offset="1" stop-color="#D8D8D8"/></linearGradient><linearGradient x1="4087" y1="2507" x2="4087" y2="1285" gradientUnits="userSpaceOnUse" spreadMethod="reflect" id="fill3"><stop offset="0" stop-color="#FF0000"/><stop offset="0.54" stop-color="#E99F87"/><stop offset="0.63" stop-color="#C6E3F4"/><stop offset="0.63" stop-color="#E99F87"/><stop offset="1" stop-color="#7D2F16"/></linearGradient></defs><g clip-path="url(#clip0)" transform="translate(-593 -480)"><text font-family="Calibri,Calibri_MSFontService,sans-serif" font-style="italic" font-weight="700" font-size="88" transform="matrix(1 0 0 1 2188.75 1048)">Socioeconomic </text><text font-family="Calibri,Calibri_MSFontService,sans-serif" font-style="italic" font-weight="700" font-size="88" transform="matrix(1 0 0 1 2243.43 1154)">Uncertainty</text><path d="M0 0 128.191 157.159" stroke="#7F7F7F" stroke-width="13.75" stroke-miterlimit="8" fill="none" fill-rule="evenodd" transform="matrix(1 0 0 -1 1942 1510.16)"/><path d="M1942 1510 2070.19 1699.36" stroke="#7F7F7F" stroke-width="13.75" stroke-miterlimit="8" fill="none" fill-rule="evenodd"/><rect x="2070" y="1634" width="769" height="131" fill="#7030A0" fill-opacity="0.301961"/><text fill="#7030A0" font-family="Calibri,Calibri_MSFontService,sans-serif" font-weight="400" font-size="99" transform="matrix(1 0 0 1 2358.49 1733)">SSP5</text><rect x="2070" y="1287" width="769" height="132" fill="#63FFA9"/><text fill="#565A3C" font-family="Calibri,Calibri_MSFontService,sans-serif" font-weight="400" font-size="99" transform="matrix(1 0 0 1 2358.49 1386)">SSP3</text><path d="M0 0 128.191 157.159" stroke="#7F7F7F" stroke-width="13.75" stroke-miterlimit="8" fill="none" fill-rule="evenodd" transform="matrix(1 0 0 -1 1942 2216.16)"/><path d="M1942 2217 2070.19 2406.36" stroke="#7F7F7F" stroke-width="13.75" stroke-miterlimit="8" fill="none" fill-rule="evenodd"/><rect x="2070" y="2340" width="769" height="132" fill="#7030A0" fill-opacity="0.301961"/><text fill="#7030A0" font-family="Calibri,Calibri_MSFontService,sans-serif" font-weight="400" font-size="99" transform="matrix(1 0 0 1 2358.49 2440)">SSP5</text><rect x="2070" y="1994" width="769" height="131" fill="#63FFA9"/><text fill="#565A3C" font-family="Calibri,Calibri_MSFontService,sans-serif" font-weight="400" font-size="99" transform="matrix(1 0 0 1 2358.49 2093)">SSP3</text><text font-family="Calibri,Calibri_MSFontService,sans-serif" font-style="italic" font-weight="700" font-size="88" transform="matrix(1 0 0 1 3274.31 1048)">Climate </text><text font-family="Calibri,Calibri_MSFontService,sans-serif" font-style="italic" font-weight="700" font-size="88" transform="matrix(1 0 0 1 3072.64 1154)">Model Uncertainty</text><path d="M2967.19 1782.6 2839 1699" stroke="#7F7F7F" stroke-width="13.75" stroke-miterlimit="8" fill="none" fill-rule="evenodd"/><path d="M0 0 128.191 88.2627" stroke="#7F7F7F" stroke-width="13.75" stroke-miterlimit="8" fill="none" fill-rule="evenodd" transform="matrix(-1 0 0 1 2967.19 1611)"/><path d="M2967.19 1439.4 2839 1353" stroke="#7F7F7F" stroke-width="13.75" stroke-miterlimit="8" fill="none" fill-rule="evenodd"/><path d="M0 0 128.191 85.3915" stroke="#7F7F7F" stroke-width="13.75" stroke-miterlimit="8" fill="none" fill-rule="evenodd" transform="matrix(-1 0 0 1 2967.19 1267)"/><rect x="2967" y="1545" width="769" height="132" fill="#ECAA95"/><text fill="#1B648F" font-family="Calibri,Calibri_MSFontService,sans-serif" font-weight="400" font-size="99" transform="matrix(1 0 0 1 3220.02 1645)">Cooler</text><rect x="2967" y="1717" width="769" height="132" fill="#FF0000" fill-opacity="0.298039"/><text fill="#C00000" font-family="Calibri,Calibri_MSFontService,sans-serif" font-weight="400" font-size="99" transform="matrix(1 0 0 1 3220.96 1816)">Hotter</text><rect x="2967" y="1373" width="769" height="132" fill="#FF0000" fill-opacity="0.301961"/><text fill="#C00000" font-family="Calibri,Calibri_MSFontService,sans-serif" font-weight="400" font-size="99" transform="matrix(1 0 0 1 3220.96 1473)">Hotter</text><rect x="2967" y="1202" width="769" height="131" fill="#ECAA95"/><text fill="#1B648F" font-family="Calibri,Calibri_MSFontService,sans-serif" font-weight="400" font-size="99" transform="matrix(1 0 0 1 3220.02 1301)">Cooler</text><path d="M3736 1260.13 3847.6 1260.13 3847.6 1273.88 3736 1273.88ZM3809.81 1237 3861.24 1267 3809.81 1297C3806.53 1298.91 3802.32 1297.81 3800.41 1294.53 3798.5 1291.25 3799.6 1287.04 3802.88 1285.12L3844.13 1261.06 3844.13 1272.94 3802.88 1248.88C3799.6 1246.96 3798.5 1242.75 3800.41 1239.47 3802.32 1236.19 3806.53 1235.09 3809.81 1237Z" fill="#7F7F7F"/><path d="M3736 1432.12 3847.6 1432.13 3847.6 1445.88 3736 1445.87ZM3809.81 1409 3861.24 1439 3809.81 1469C3806.53 1470.91 3802.32 1469.81 3800.41 1466.53 3798.5 1463.25 3799.6 1459.04 3802.88 1457.12L3844.13 1433.06 3844.13 1444.94 3802.88 1420.88C3799.6 1418.96 3798.5 1414.75 3800.41 1411.47 3802.32 1408.19 3806.53 1407.09 3809.81 1409Z" fill="#7F7F7F"/><path d="M3736 1604.13 3847.6 1604.13 3847.6 1617.88 3736 1617.88ZM3809.81 1581 3861.24 1611 3809.81 1641C3806.53 1642.91 3802.32 1641.81 3800.41 1638.53 3798.5 1635.25 3799.6 1631.04 3802.88 1629.12L3844.13 1605.06 3844.13 1616.94 3802.88 1592.88C3799.6 1590.96 3798.5 1586.75 3800.41 1583.47 3802.32 1580.19 3806.53 1579.09 3809.81 1581Z" fill="#7F7F7F"/><path d="M3736 1776.12 3847.6 1776.13 3847.6 1789.88 3736 1789.88ZM3809.81 1753 3861.24 1783 3809.81 1813C3806.53 1814.91 3802.32 1813.81 3800.41 1810.53 3798.5 1807.25 3799.6 1803.04 3802.88 1801.12L3844.13 1777.06 3844.13 1788.94 3802.88 1764.88C3799.6 1762.96 3798.5 1758.75 3800.41 1755.47 3802.32 1752.19 3806.53 1751.09 3809.81 1753Z" fill="#7F7F7F"/><path d="M2967.19 2489.6 2839 2406" stroke="#7F7F7F" stroke-width="13.75" stroke-miterlimit="8" fill="none" fill-rule="evenodd"/><path d="M0 0 128.191 88.2627" stroke="#7F7F7F" stroke-width="13.75" stroke-miterlimit="8" fill="none" fill-rule="evenodd" transform="matrix(-1 0 0 1 2967.19 2318)"/><path d="M2967.19 2145.4 2839 2059" stroke="#7F7F7F" stroke-width="13.75" stroke-miterlimit="8" fill="none" fill-rule="evenodd"/><path d="M0 0 128.191 85.3915" stroke="#7F7F7F" stroke-width="13.75" stroke-miterlimit="8" fill="none" fill-rule="evenodd" transform="matrix(-1 0 0 1 2967.19 1974)"/><rect x="2967" y="2252" width="769" height="131" fill="#ECAA95"/><text fill="#1B648F" font-family="Calibri,Calibri_MSFontService,sans-serif" font-weight="400" font-size="99" transform="matrix(1 0 0 1 3220.02 2351)">Cooler</text><rect x="2967" y="2424" width="769" height="131" fill="#FF0000" fill-opacity="0.301961"/><text fill="#C00000" font-family="Calibri,Calibri_MSFontService,sans-serif" font-weight="400" font-size="99" transform="matrix(1 0 0 1 3220.96 2523)">Hotter</text><rect x="2967" y="2080" width="769" height="132" fill="#FF0000" fill-opacity="0.301961"/><text fill="#C00000" font-family="Calibri,Calibri_MSFontService,sans-serif" font-weight="400" font-size="99" transform="matrix(1 0 0 1 3220.96 2179)">Hotter</text><rect x="2967" y="1908" width="769" height="132" fill="#ECAA95"/><text fill="#1B648F" font-family="Calibri,Calibri_MSFontService,sans-serif" font-weight="400" font-size="99" transform="matrix(1 0 0 1 3220.02 2008)">Cooler</text><path d="M3736 1967.13 3847.6 1967.13 3847.6 1980.88 3736 1980.88ZM3809.81 1944 3861.24 1974 3809.81 2004C3806.53 2005.91 3802.32 2004.81 3800.41 2001.53 3798.5 1998.25 3799.6 1994.04 3802.88 1992.12L3844.13 1968.06 3844.13 1979.94 3802.88 1955.88C3799.6 1953.96 3798.5 1949.75 3800.41 1946.47 3802.32 1943.19 3806.53 1942.09 3809.81 1944Z" fill="#7F7F7F"/><path d="M3736 2139.12 3847.6 2139.13 3847.6 2152.88 3736 2152.88ZM3809.81 2116 3861.24 2146 3809.81 2176C3806.53 2177.91 3802.32 2176.81 3800.41 2173.53 3798.5 2170.25 3799.6 2166.04 3802.88 2164.12L3844.13 2140.06 3844.13 2151.94 3802.88 2127.88C3799.6 2125.96 3798.5 2121.75 3800.41 2118.47 3802.32 2115.19 3806.53 2114.09 3809.81 2116Z" fill="#7F7F7F"/><path d="M3736 2311.12 3847.6 2311.13 3847.6 2324.88 3736 2324.88ZM3809.81 2288 3861.24 2318 3809.81 2348C3806.53 2349.91 3802.32 2348.81 3800.41 2345.53 3798.5 2342.25 3799.6 2338.04 3802.88 2336.12L3844.13 2312.06 3844.13 2323.94 3802.88 2299.88C3799.6 2297.96 3798.5 2293.75 3800.41 2290.47 3802.32 2287.19 3806.53 2286.09 3809.81 2288Z" fill="#7F7F7F"/><path d="M3736 2483.13 3847.6 2483.13 3847.6 2496.88 3736 2496.88ZM3809.81 2460 3861.24 2490 3809.81 2520C3806.53 2521.91 3802.32 2520.81 3800.41 2517.53 3798.5 2514.25 3799.6 2510.04 3802.88 2508.12L3844.13 2484.06 3844.13 2495.94 3802.88 2471.88C3799.6 2469.96 3798.5 2465.75 3800.41 2462.47 3802.32 2459.19 3806.53 2458.09 3809.81 2460Z" fill="#7F7F7F"/><path d="M1762 539 1835.07 480 3704.93 480 3778 539Z" fill="url(#fill1)" fill-rule="evenodd"/><rect x="1762.5" y="542.5" width="296" height="191" stroke="#FFFFFF" stroke-width="4.58333" stroke-miterlimit="8" fill="#307F9C"/><text fill="#FFFFFF" font-family="Arial,Arial_MSFontService,sans-serif" font-weight="400" font-size="62" transform="matrix(1 0 0 1 1805.3 659)">Climate</text><rect x="3076.5" y="542.5" width="315" height="191" stroke="#FFFFFF" stroke-width="4.58333" stroke-miterlimit="8" fill="#307F9C"/><text fill="#FFFFFF" font-family="Arial,Arial_MSFontService,sans-serif" font-weight="400" font-size="62" transform="matrix(1 0 0 1 3132.34 623)">Urbani</text><text fill="#FFFFFF" font-family="Arial,Arial_MSFontService,sans-serif" font-weight="400" font-size="62" transform="matrix(1 0 0 1 3314.53 623)">-</text><text fill="#FFFFFF" font-family="Arial,Arial_MSFontService,sans-serif" font-weight="400" font-size="62" transform="matrix(1 0 0 1 3151.25 697)">zation</text><rect x="2725.5" y="542.5" width="349" height="191" stroke="#FFFFFF" stroke-width="4.58333" stroke-miterlimit="8" fill="#307F9C"/><text fill="#FFFFFF" font-family="Arial,Arial_MSFontService,sans-serif" font-weight="400" font-size="62" transform="matrix(1 0 0 1 2792.75 623)">Popula</text><text fill="#FFFFFF" font-family="Arial,Arial_MSFontService,sans-serif" font-weight="400" font-size="62" transform="matrix(1 0 0 1 2985.25 623)">-</text><text fill="#FFFFFF" font-family="Arial,Arial_MSFontService,sans-serif" font-weight="400" font-size="62" transform="matrix(1 0 0 1 2849.47 697)">tion</text><rect x="2060.5" y="542.5" width="330" height="191" stroke="#FFFFFF" stroke-width="4.58333" stroke-miterlimit="8" fill="#307F9C"/><text fill="#FFFFFF" font-family="Arial,Arial_MSFontService,sans-serif" font-weight="400" font-size="62" transform="matrix(1 0 0 1 2159.66 623)">Heat </text><text fill="#FFFFFF" font-family="Arial,Arial_MSFontService,sans-serif" font-weight="400" font-size="62" transform="matrix(1 0 0 1 2131.59 697)">Waves</text><rect x="2392.5" y="542.5" width="331" height="191" stroke="#FFFFFF" stroke-width="4.58333" stroke-miterlimit="8" fill="#307F9C"/><text fill="#FFFFFF" font-family="Arial,Arial_MSFontService,sans-serif" font-weight="400" font-size="62" transform="matrix(1 0 0 1 2447.47 659)">Drought</text><rect x="3388.5" y="542.5" width="395" height="191" stroke="#FFFFFF" stroke-width="4.58333" stroke-miterlimit="8" fill="#307F9C"/><text fill="#FFFFFF" font-family="Arial,Arial_MSFontService,sans-serif" font-weight="400" font-size="60" transform="matrix(1 0 0 1 3521.04 658)">GDP</text><rect x="1762" y="542" width="2016" height="191" stroke="#A5A5A5" stroke-width="8.02083" stroke-linecap="round" stroke-linejoin="round" stroke-miterlimit="10" fill="none"/><path d="M1384 979 1652.74 762 3885.25 762 4154 979Z" fill="url(#fill2)" fill-rule="evenodd"/><path d="M1278.5 796.529 1762.85 796.529 1762.85 735.5 3779.15 735.5 3779.15 796.529 4263.5 796.529 2771 968.5Z" stroke="#A5A5A5" stroke-width="4.58333" stroke-miterlimit="8" fill="#307F9C" fill-rule="evenodd"/><text fill="#FFFFFF" font-family="Arial,Arial_MSFontService,sans-serif" font-weight="700" font-size="77" transform="matrix(1 0 0 1 1896.52 820)">Compounding Short</text><text fill="#FFFFFF" font-family="Arial,Arial_MSFontService,sans-serif" font-weight="700" font-size="77" transform="matrix(1 0 0 1 2640.17 820)">-</text><text fill="#FFFFFF" font-family="Arial,Arial_MSFontService,sans-serif" font-weight="700" font-size="77" transform="matrix(1 0 0 1 2687.15 820)">and Long</text><text fill="#FFFFFF" font-family="Arial,Arial_MSFontService,sans-serif" font-weight="700" font-size="77" transform="matrix(1 0 0 1 3033.19 820)">-</text><text fill="#FFFFFF" font-family="Arial,Arial_MSFontService,sans-serif" font-weight="700" font-size="77" transform="matrix(1 0 0 1 3058.97 820)">Term Influences</text><text fill="#FF0000" font-family="Calibri,Calibri_MSFontService,sans-serif" font-weight="700" font-size="77" transform="matrix(1 0 0 1 4213.45 2116)">hotter &amp; drier, </text><text fill="#FF0000" font-family="Calibri,Calibri_MSFontService,sans-serif" font-weight="700" font-size="77" transform="matrix(1 0 0 1 4213.45 2208)">greater </text><text fill="#FF0000" font-family="Calibri,Calibri_MSFontService,sans-serif" font-weight="700" font-size="77" transform="matrix(1 0 0 1 4213.45 2301)">socioeconomic </text><text fill="#FF0000" font-family="Calibri,Calibri_MSFontService,sans-serif" font-weight="700" font-size="77" transform="matrix(1 0 0 1 4213.45 2393)">growth in U.S.</text><path d="M4151 2443 4087 2507 4023 2443 4055 2443 4055 1349 4023 1349 4087 1285 4151 1349 4119 1349 4119 2443Z" fill="url(#fill3)" fill-rule="evenodd"/><text fill="#3081A6" font-family="Calibri,Calibri_MSFontService,sans-serif" font-weight="700" font-size="77" transform="matrix(1 0 0 1 4213.45 1374)">cooler &amp; wetter, </text><text fill="#3081A6" font-family="Calibri,Calibri_MSFontService,sans-serif" font-weight="700" font-size="77" transform="matrix(1 0 0 1 4213.45 1466)">lower </text><text fill="#3081A6" font-family="Calibri,Calibri_MSFontService,sans-serif" font-weight="700" font-size="77" transform="matrix(1 0 0 1 4213.45 1559)">socioeconomic </text><text fill="#3081A6" font-family="Calibri,Calibri_MSFontService,sans-serif" font-weight="700" font-size="77" transform="matrix(1 0 0 1 4213.45 1651)">growth in U.S.</text><text font-family="Calibri,Calibri_MSFontService,sans-serif" font-style="italic" font-weight="700" font-size="88" transform="matrix(1 0 0 1 4057.38 1120)">8 Scenarios</text><text font-family="Calibri,Calibri_MSFontService,sans-serif" font-style="italic" font-weight="700" font-size="88" transform="matrix(1 0 0 1 1471.13 1048)">Climate </text><text font-family="Calibri,Calibri_MSFontService,sans-serif" font-style="italic" font-weight="700" font-size="88" transform="matrix(1 0 0 1 1396.65 1154)">Uncertainty</text><rect x="1173" y="1444" width="769" height="132" fill="#6CA1FF"/><text fill="#4C4545" font-family="Calibri,Calibri_MSFontService,sans-serif" font-weight="400" font-size="99" transform="matrix(1 0 0 1 1415.75 1544)">RCP4.5</text><rect x="1173" y="2151" width="769" height="131" fill="#FC84A3"/><text fill="#1B648F" font-family="Calibri,Calibri_MSFontService,sans-serif" font-weight="400" font-size="99" transform="matrix(1 0 0 1 1415.75 2250)">RCP8.5</text><path d="M736.699 1376.45 1008.26 1376.45 1008.26 1466.45 736.699 1466.45Z" fill="#FFFFFF" fill-rule="evenodd"/><path d="M1008.26 1376.45 1029.46 1376.45 1029.46 1466.45 1008.26 1466.45Z" fill="#FFFFFF" fill-rule="evenodd"/><path d="M1029.46 1376.45 1162.77 1376.45 1162.77 1466.45 1029.46 1466.45Z" fill="#FFFFFF" fill-rule="evenodd"/><path d="M736.699 1456.46 1062.69 1456.46 1062.69 1546.46 736.699 1546.46Z" fill="#FFFFFF" fill-rule="evenodd"/><text fill="#333333" font-family="Open Sans,Open Sans_MSFontService,sans-serif" font-weight="700" font-size="66" transform="matrix(1 0 0 1 736.699 1449)">Medium</text><text fill="#333333" font-family="Open Sans,Open Sans_MSFontService,sans-serif" font-weight="700" font-size="66" transform="matrix(1 0 0 1 1008.26 1449)">-</text><text fill="#333333" font-family="Open Sans,Open Sans_MSFontService,sans-serif" font-weight="700" font-size="66" transform="matrix(1 0 0 1 1029.46 1449)">low </text><text fill="#333333" font-family="Open Sans,Open Sans_MSFontService,sans-serif" font-weight="700" font-size="66" transform="matrix(1 0 0 1 736.699 1529)">emissions</text><path d="M774.876 2080.49 943.313 2080.49 943.313 2170.49 774.876 2170.49Z" fill="#FFFFFF" fill-rule="evenodd"/><path d="M774.876 2160.5 1100.87 2160.5 1100.87 2250.5 774.876 2250.5Z" fill="#FFFFFF" fill-rule="evenodd"/><text fill="#333333" font-family="Open Sans,Open Sans_MSFontService,sans-serif" font-weight="700" font-size="66" transform="matrix(1 0 0 1 774.876 2153)">High </text><text fill="#333333" font-family="Open Sans,Open Sans_MSFontService,sans-serif" font-weight="700" font-size="66" transform="matrix(1 0 0 1 774.876 2233)">emissions</text><text font-family="Calibri,Calibri_MSFontService,sans-serif" font-weight="700" font-size="73" transform="matrix(1 0 0 1 1188 1708)">Representative </text><text font-family="Calibri,Calibri_MSFontService,sans-serif" font-weight="700" font-size="73" transform="matrix(1 0 0 1 1188 1796)">Concentration </text><text font-family="Calibri,Calibri_MSFontService,sans-serif" font-weight="700" font-size="73" transform="matrix(1 0 0 1 1188 1884)">Pathways (RCP)</text><text font-family="Calibri,Calibri_MSFontService,sans-serif" font-weight="400" font-size="73" transform="matrix(1 0 0 1 1658.3 1884)">: </text><text font-family="Calibri,Calibri_MSFontService,sans-serif" font-weight="400" font-size="73" transform="matrix(1 0 0 1 1188 1972)">Radiative forcing at the </text><text font-family="Calibri,Calibri_MSFontService,sans-serif" font-weight="400" font-size="73" transform="matrix(1 0 0 1 1188 2060)">end of the 21</text><text font-family="Calibri,Calibri_MSFontService,sans-serif" font-weight="400" font-size="49" transform="matrix(1 0 0 1 1586.75 2038)">st</text><text font-family="Calibri,Calibri_MSFontService,sans-serif" font-weight="400" font-size="73" transform="matrix(1 0 0 1 1638.34 2060)">century</text><text font-family="Calibri,Calibri_MSFontService,sans-serif" font-weight="400" font-size="83" transform="matrix(1 0 0 1 1512.74 2663)">Slow economic growth; low population growth in rich countries</text><rect x="753" y="2583" width="727" height="131" fill="#63FFA9"/><text fill="#565A3C" font-family="Calibri,Calibri_MSFontService,sans-serif" font-weight="400" font-size="99" transform="matrix(1 0 0 1 1020.31 2682)">SSP3</text><rect x="753" y="2750" width="727" height="132" fill="#7030A0" fill-opacity="0.301961"/><text fill="#7030A0" font-family="Calibri,Calibri_MSFontService,sans-serif" font-weight="400" font-size="99" transform="matrix(1 0 0 1 1020.31 2850)">SSP5</text><text font-family="Calibri,Calibri_MSFontService,sans-serif" font-weight="400" font-size="83" transform="matrix(1 0 0 1 1515.56 2826)">High economic growth; high population growth in U.S.; fossil</text><text font-family="Calibri,Calibri_MSFontService,sans-serif" font-weight="400" font-size="83" transform="matrix(1 0 0 1 3541.81 2826)">-</text><text font-family="Calibri,Calibri_MSFontService,sans-serif" font-weight="400" font-size="83" transform="matrix(1 0 0 1 3567.02 2826)">fueled development</text><text fill="#494A4C" font-family="Arial,Arial_MSFontService,sans-serif" font-weight="700" font-size="73" transform="matrix(1 0 0 1 637.731 2549)">Shared Socioeconomic Pathway (SSP)</text></g></svg>